# xmcd CD database file
#
# Track frame offsets:
#	150
#	31128
#	51533
#	68326
#	95667
#	121312
#	142095
#	172992
#	186353
#	201383
#	232601
#	243212
#
# Disc length: 3804 seconds
#
# Revision: 1
# Processed by: cddbd v1.5.2PL0 Copyright (c) Steve Scherf et al.
# Submitted via: CDex 1.70beta2
#
DISCID=a20eda0c
DTITLE=Keith Jarrett - Somewhere Before: The Atlantic Years 1968-75-1
DYEAR=1975
DGENRE=Jazz
TTITLE0=Life Between The Exit Signs
TTITLE1=Everything I Love
TTITLE2=Margot
TTITLE3=Lisbon Stomp
TTITLE4=New Rag
TTITLE5=Pouts' Over (And The Day's Not Through)
TTITLE6=Somewhere Before
TTITLE7=Moment For Tears
TTITLE8=Standing Outside
TTITLE9=Trust
TTITLE10=All I Want
TTITLE11=Mourning Of A Star
EXTD=YEAR: 1975
EXTT0=
EXTT1=
EXTT2=
EXTT3=
EXTT4=
EXTT5=
EXTT6=
EXTT7=
EXTT8=
EXTT9=
EXTT10=
EXTT11=
PLAYORDER=
